SplineFontDB: 3.0
FontName: KisStM
FullName: Sorts Mill Kis
FamilyName: Sorts Mill Kis
Weight: Regular
Copyright: Created by trashman with FontForge 2.0 (http://fontforge.sf.net)
UComments: "Cut 3200-dpi samples to 640 pixels high. Scale by a factor of 1.1.+AAoACgAA-Cut 6400-dpi samples to 1280 pixels high. Scale by a factor of 1.1." 
Version: 001.000
ItalicAngle: 0
UnderlinePosition: -100
UnderlineWidth: 49
Ascent: 700
Descent: 300
LayerCount: 3
Layer: 0 0 "Back"  1
Layer: 1 0 "Fore"  0
Layer: 2 0 "backup"  0
NeedsXUIDChange: 1
XUID: [1021 658 797806517 2478896]
FSType: 0
OS2Version: 0
OS2_WeightWidthSlopeOnly: 0
OS2_UseTypoMetrics: 1
CreationTime: 1263111985
ModificationTime: 1264651844
OS2TypoAscent: 0
OS2TypoAOffset: 1
OS2TypoDescent: 0
OS2TypoDOffset: 1
OS2TypoLinegap: 90
OS2WinAscent: 0
OS2WinAOffset: 1
OS2WinDescent: 0
OS2WinDOffset: 1
HheadAscent: 0
HheadAOffset: 1
HheadDescent: 0
HheadDOffset: 1
MarkAttachClasses: 1
DEI: 91125
LangName: 1033 
Encoding: UnicodeBmp
UnicodeInterp: none
NameList: Adobe Glyph List
DisplaySize: -72
AntiAlias: 1
FitToEm: 1
WinInfo: 96 8 6
BeginPrivate: 9
BlueValues 23 [-16 1 391 415 682 684]
OtherBlues 11 [-283 -273]
BlueFuzz 1 0
BlueShift 1 1
BlueScale 8 0.039625
StdHW 4 [24]
StdVW 4 [73]
StemSnapH 7 [24 31]
StemSnapV 8 [73 100]
EndPrivate
Grid
-758 391 m 2
 972 391 l 2
EndSplineSet
BeginChars: 65536 66

StartChar: a
Encoding: 97 97 0
Width: 390
VWidth: 0
Flags: HW
HStem: -13 42<88.5 190.327> -8 49<276.5 353.38> 370 39<139.599 222.691>
VStem: 31 72<255.322 336.988> 35 80<33.7508 121.122> 241 73<50.5753 179.854 207.095 353.496>
LayerCount: 3
Fore
SplineSet
177 370 m 0xac
 146 370 103 352 103 324 c 0
 103 316 108 306 108 292 c 0
 108 266 87 252 68 252 c 0
 49 252 31 266 31 294 c 0
 31 305 34 317 42 327 c 0
 78 370 174 409 215 409 c 0
 272 409 314 374 314 322 c 2
 314 135 l 2
 314 62 314 41 336 41 c 0
 360 41 353 64 366 64 c 0
 370 64 375 62 375 54 c 0
 375 20 331 -8 299 -8 c 0x74
 254 -8 246 42 246 42 c 1
 246 42 180 -13 114 -13 c 0
 63 -13 35 14 35 67 c 0
 35 132 109 165 176 191 c 0
 238 215 241 210 241 228 c 2
 241 253 l 2
 241 312 240 370 177 370 c 0xac
238 186 m 1
 238 186 115 148 115 81 c 0
 115 64 121 29 154 29 c 0xac
 204 29 241 67 241 71 c 2
 241 177 l 2
 241 185 240 186 238 186 c 1
EndSplineSet
Layer: 2
SplineSet
366 64 m 4x74
 370 64 375 62 375 54 c 4
 375 20 327 -8 295 -8 c 4x74
 250 -8 246 39 245 41 c 5
 243 40 177 -13 121 -13 c 4
 70 -13 33 21 33 67 c 4xac
 33 132 109 165 176 191 c 4
 238 215 241 210 241 223 c 6
 241 253 l 6
 241 321 238 370 172 370 c 4
 164 370 122 361 110 347 c 4
 106 342 103 334 103 324 c 4
 103 316 106 306 106 292 c 4
 106 266 86 252 67 252 c 4
 48 252 30 266 30 294 c 4
 30 305 34 317 42 327 c 4
 77 369 172 409 215 409 c 4
 272 409 314 374 314 322 c 6
 314 135 l 6
 314 62 314 43 332 43 c 4
 354 43 356 63 366 64 c 4x74
238 185 m 4
 234 185 111 145 111 88 c 4
 111 70 121 33 159 33 c 4xac
 195 33 241 67 241 71 c 6
 241 177 l 6
 241 183 241 185 238 185 c 4
EndSplineSet
EndChar

StartChar: M
Encoding: 77 77 1
Width: 912
VWidth: 0
Flags: W
HStem: -5 31<37.0119 93.3305 140.013 197.972 610.115 694.159 803.719 872.988> 625 33<94.1084 176.157 777.939 853.945>
VStem: 37 100<3.5 80.5> 698 96<28.5438 270.444>
LayerCount: 3
Fore
SplineSet
141 625 m 2
 109 625 l 2
 100 625 94 626 94 637 c 0
 94 655 98 658 107 658 c 0
 149 656 129 655 244 655 c 2
 257 655 l 2
 269 655 274 653 279 639 c 2
 459 134 l 1
 689 646 l 2
 692 653 698 655 706 655 c 2
 772 655 l 2
 804 655 835 657 845 657 c 0
 852 657 854 652 854 638 c 0
 854 624 852 627 813 624 c 0
 781 622 775 615 775 586 c 0
 775 573 775 555 776 532 c 2
 794 104 l 2
 797.359028864 39.5066458076 805 29 825 26 c 0
 835 24 847.60570596 24.6101364988 865 21 c 0
 871 20 873 17 873 10 c 0
 873 -2 869 -5 861 -5 c 0
 844 -5 794 1 747 1 c 0
 720 1 638 -5 625 -5 c 0
 609 -5 610 3 610 8 c 0
 610 26 619 22 677 26 c 0
 697 27 698 51 698 96 c 0
 698 133 686 554 683 554 c 0
 680 554 575 322 435 14 c 0
 431 6 430 3 421 3 c 2
 417 3 l 2
 410 3 406 3 402 16 c 0
 399 25 394 37 389 52 c 0
 381 75 208 568 204 568 c 0
 200 568 137 96 137 65 c 0
 137 29 148 26 174 26 c 0
 196 26 198 18 198 13 c 0
 198 -1 196 -5 182 -5 c 0
 176 -5 134 1 112 1 c 0
 100 1 57 -5 54 -5 c 0
 41 -5 37 -3 37 10 c 0
 37 27 47 23 63 26 c 0
 88 30 97 35 103 75 c 0
 176 587 177 592 177 599 c 0
 177 621 168 625 141 625 c 2
EndSplineSet
Validated: 1
Layer: 2
SplineSet
141 625 m 6
 109 625 l 6
 100 625 94 626 94 637 c 4
 94 655 98 658 107 658 c 4
 149 656 129 655 244 655 c 6
 257 655 l 6
 269 655 274 653 279 639 c 6
 459 134 l 5
 689 646 l 6
 692 653 698 655 706 655 c 6
 772 655 l 6
 804 655 835 657 845 657 c 4
 852 657 854 652 854 638 c 4
 854 624 852 627 813 624 c 4
 781 622 775 615 775 586 c 4
 775 573 775 555 776 532 c 6
 794 104 l 6
 798 11 810 30 865 21 c 4
 871 20 873 17 873 10 c 4
 873 -2 869 -5 861 -5 c 4
 844 -5 794 1 747 1 c 4
 720 1 638 -5 625 -5 c 4
 609 -5 610 3 610 8 c 4
 610 26 619 22 677 26 c 4
 697 27 698 51 698 96 c 4
 698 133 686 554 683 554 c 4
 680 554 575 322 435 14 c 4
 431 6 430 3 421 3 c 6
 417 3 l 6
 410 3 406 3 402 16 c 4
 399 25 394 37 389 52 c 4
 381 75 208 568 204 568 c 4
 200 568 137 96 137 65 c 4
 137 29 148 26 174 26 c 4
 196 26 198 18 198 13 c 4
 198 -1 196 -5 182 -5 c 4
 176 -5 134 1 112 1 c 4
 96 1 62 -3 59 -3 c 4
 42 -3 39 -1 39 12 c 4
 39 23 43 26 59 29 c 4
 78 32 97 35 103 75 c 4
 176 587 177 592 177 599 c 4
 177 621 168 625 141 625 c 6
EndSplineSet
Validated: 1
EndChar

StartChar: b
Encoding: 98 98 2
Width: 475
VWidth: 0
Flags: W
HStem: -15 31<185.847 297.241> 0 21G<75 84> 377 27<198.146 292.223> 620 25<15.0008 58.052> 662 20G<137.5 144>
VStem: 75 73<45.5 345.382 373 611.975> 351 87<103.276 304.542>
LayerCount: 3
Fore
SplineSet
438 204 m 0x7e
 438 106 376 -15 247 -15 c 0xbe
 171 -15 141 21 122 21 c 0
 98 21 90 0 78 0 c 0
 72 0 69 6 69 13 c 0
 69 16 75 30 75 118 c 2
 75 182 l 2
 75 248 75 359 74 491 c 0
 74 600 68 616 27 620 c 0
 16 621 15 627 15 632 c 0
 15 640 15 642 28 645 c 0
 118 666 134 682 141 682 c 0
 147 682 149 680 149 671 c 0
 148 646 148 609 148 572 c 2
 148 373 l 1
 148 373 199 404 251 404 c 0
 382 404 438 307 438 204 c 0x7e
351 184 m 0
 351 346 293 377 252 377 c 0
 202 377 146 338 146 306 c 2
 146 149 l 2
 146 135 146 121 148 108 c 0
 155 64 166 16 248 16 c 0
 276 16 306 28 330 67 c 0
 345 92 351 139 351 184 c 0
EndSplineSet
Layer: 2
SplineSet
122 21 m 4x7c
 98 21 88 0 76 0 c 4x7c
 70 0 67 6 67 13 c 4
 67 16 75 51 75 339 c 6
 75 520 l 6
 75 603.416604003 74.195475798 608.794360409 42.9999999997 620.562830317 c 4
 -4.32505091585 638.061937081 48.3517799634 648.726748399 50 649.203193253 c 4
 117.196863132 669.236223706 135.853023664 682 146 682 c 4
 148 682 150 681 150 674 c 4
 150 588 148 584 148 482 c 6
 148 378 l 5
 148 378 196 405 248 405 c 4
 379 405 438 307 438 204 c 4
 438 85 363 -15 247 -15 c 4xbc
 171 -15 141 21 122 21 c 4x7c
249 378 m 4
 180 378 146 326 146 326 c 5
 146 178 l 6
 146 153 148 130 151 108 c 4
 158 63 166 29 217 19 c 4
 228 17 237 16 246 16 c 4xbc
 276 16 299 29 315 51 c 4
 338 83 351 139 351 197 c 4
 351 287 320 378 249 378 c 4
EndSplineSet
EndChar

StartChar: c
Encoding: 99 99 3
Width: 399
VWidth: 0
Flags: HW
HStem: -16 53<179.081 307.837> 374 29<179.367 260.71>
VStem: 20 78<120.756 284.459>
LayerCount: 3
Back
SplineSet
275 38 m 4
 312 43 332 53 343 63 c 4
 355 74 355 83 362 84 c 4
 369 85 372 81 372 76 c 4
 372 65 357 41 330 21 c 4
 303 2 266 -15 222 -15 c 4
 91 -15 26 77 26 189 c 4
 26 294 94 405 237 405 c 4
 296 405 374 372 374 323 c 4
 374 301 358 283 338 283 c 4
 303 283 285 326 272 348 c 4
 258 371 245 376 227 376 c 4
 174 376 105 322 105 206 c 4
 105 152 118 114 139 89 c 4
 179 43 229 37 256 37 c 4
 266 37 273 38 275 38 c 4
EndSplineSet
Fore
SplineSet
28 189 m 0
 28 310 106 405 237 405 c 0
 296 405 374 372 374 323 c 0
 374 301 358 283 338 283 c 0
 303 283 285 326 272 348 c 0
 258 371 245 376 227 376 c 0
 197 376 162 358 137 322 c 0
 118 294 107 256 107 206 c 0
 107 152 118 114 139 89 c 0
 179 43 227 37 255 37 c 0
 264 37 270 37 275 38 c 0
 312 43 332 53 343 63 c 0
 355 74 355 83 362 84 c 0
 369 85 372 81 372 76 c 0
 372 65 357 41 330 21 c 0
 303 2 266 -15 222 -15 c 0
 139.61875 -15 28 25.8 28 189 c 0
EndSplineSet
Layer: 2
SplineSet
275 38 m 4
 312 43 332 53 343 63 c 4
 355 74 355 83 362 84 c 4
 369 85 372 81 372 76 c 4
 372 65 357 41 330 21 c 4
 303 2 266 -15 222 -15 c 4
 91 -15 26 77 26 189 c 4
 26 294 94 405 237 405 c 4
 296 405 374 372 374 323 c 4
 374 301 358 283 338 283 c 4
 303 283 285 326 272 348 c 4
 258 371 245 376 227 376 c 4
 174 376 105 322 105 206 c 4
 105 152 118 114 139 89 c 4
 179 43 229 37 256 37 c 4
 266 37 273 38 275 38 c 4
275 38 m 0
 353 48 353 79 362 79 c 0
 369 79 372 76 372 71 c 0
 372 60 357 41 330 21 c 0
 303 2 266 -15 222 -15 c 0
 91 -15 26 77 26 189 c 0
 26 294 94 405 237 405 c 0
 296 405 374 372 374 323 c 0
 374 301 358 283 338 283 c 0
 303 283 285 326 272 348 c 0
 258 371 245 376 227 376 c 0
 174 376 105 322 105 206 c 0
 105 152 118 114 139 89 c 0
 179 43 229 37 256 37 c 0
 266 37 273 38 275 38 c 0
237 405 m 0
 296 405 374 372 374 323 c 0
 374 301 358 283 338 283 c 0
 303 283 285 326 272 348 c 0
 258 371 245 376 227 376 c 0
 160 375 98 304 98 210 c 0
 98 94 184 39 263 39 c 0
 332 39 361 77 368 77 c 0
 369 77 375 73 375 69 c 0
 375 57 316 -14 220 -14 c 0
 87 -14 20 86 20 189 c 0
 20 296 92 405 237 405 c 0
EndSplineSet
EndChar

StartChar: d
Encoding: 100 100 4
Width: 467
VWidth: 0
Flags: WO
HStem: -14 42<166.503 274.2> 15 23<400.99 446.998> 377 27<165.275 263.833> 618 25<240.001 287.297> 662 20G<372.5 379>
VStem: 18 82<106.958 287.05> 310 73<47.4062 342.354 381 606.023>
LayerCount: 3
Fore
SplineSet
441 15 m 0x7e
 349 2 347 -12 327 -12 c 0
 321 -12 320 -6 320 3 c 0
 320 10 321 22 321 35 c 0
 321 38 321 41 320 41 c 0
 319 41 313 36 309 31 c 0
 292 13 246 -14 199 -14 c 0xbe
 97 -14 18 61 18 179 c 0
 18 233 35 280 44 295 c 0
 77 355 138 404 248 404 c 0
 267 404 310 381 310 381 c 1
 310 522 l 2
 310 605 289 614 252 618 c 0
 241 619 240 625 240 630 c 0
 240 638 240 640 253 643 c 0
 343 664 369 682 376 682 c 0
 382 682 384 680 384 671 c 0
 383 646 383 609 383 572 c 2
 383 172 l 2
 383 66 386 49 414 42 c 0
 418 41 435 38 437 38 c 0
 445 37 447 37 447 26 c 0
 447 17 444 15 441 15 c 0x7e
217 377 m 0
 121 377 100 274 100 209 c 0
 100 121 142 28 230 28 c 0
 305 28 311 88 311 96 c 0
 313 124 313 136 313 151 c 2
 313 226 l 2
 313 239 313 249 311 282 c 0
 309 330 273 377 217 377 c 0
EndSplineSet
Layer: 2
SplineSet
383 172 m 1
 383 66 386 49 414 42 c 0
 418 41 435 38 437 38 c 0
 445 37 447 37 447 26 c 0
 447 17 444 15 441 15 c 0
 355 2 337 -11 327 -11 c 0
 325 -11 319 -11 319 -7 c 0
 319 5 320 25 320 34 c 0
 320 37 320 40 319 40 c 0
 318 40 313 36 309 31 c 0
 292 13 246 -16 199 -16 c 0
 122 -16 20 37 20 178 c 0
 20 265 71 398 248 398 c 0
 267 398 310 383 310 383 c 1
 310 383 310 424 310 491 c 1
 310 600 303 616 262 620 c 0
 251 621 250 627 250 632 c 0
 250 640 250 642 263 645 c 0
 353 666 369 682 376 682 c 0
 382 682 384 680 384 671 c 0
 383 646 383 609 383 572 c 2
 383 172 l 1
217 371 m 0
 131 371 96 295 96 215 c 0
 96 126 145 26 230 26 c 0
 305 26 311 88 311 96 c 0
 313 124 313 136 313 151 c 2
 313 226 l 2
 313 239 313 249 311 282 c 0
 309 330 273 371 217 371 c 0
EndSplineSet
EndChar

StartChar: e
Encoding: 101 101 5
Width: 425
VWidth: 0
Flags: HW
HStem: -14 56<187.259 308.99> 254 22<115.498 307.094> 380 27<171.091 270.566>
VStem: 30 74<127.665 274.269> 311 77<266 338.904>
LayerCount: 3
Fore
SplineSet
219 380 m 0
 152 380 118 312 118 289 c 0
 118 280 119 276 133 276 c 2
 277 276 l 2
 287 276 311 278 311 299 c 0
 311 328 290 380 219 380 c 0
390 102 m 0
 390 79 330 -14 221 -14 c 0
 130 -14 62 39 39 126 c 0
 33 149 32 173 32 200 c 0
 32 305 106 407 221 407 c 0
 333 407 388 333 388 272 c 0
 388 260 387 254 376 254 c 2
 127 254 l 2
 110 254 108 245 108 229 c 0
 108 206 108 186 111 168 c 0
 130 72 198 44 266 44 c 0
 329 44 356 75 368 102 c 0
 371 109 376 111 380 111 c 0
 387 111 390 108 390 102 c 0
EndSplineSet
Layer: 2
SplineSet
219 380 m 4
 152 380 115 312 115 289 c 4
 115 280 117 276 131 276 c 6
 277 276 l 6
 287 276 311 278 311 299 c 4
 311 328 290 380 219 380 c 4
223 -14 m 4
 110 -14 30 83 30 200 c 4
 30 305 106 407 221 407 c 4
 333 407 388 333 388 272 c 4
 388 260 387 254 376 254 c 6
 123 254 l 6
 106 254 104 245 104 229 c 4
 104 81 202 42 269 42 c 4
 325 42 356 70 372 102 c 4
 377 112 379 113 387 110 c 4
 392 108 394 108 394 104 c 4
 394 86 337 -14 223 -14 c 4
EndSplineSet
EndChar

StartChar: f
Encoding: 102 102 6
Width: 291
VWidth: 0
Flags: W
HStem: -1 23<29.0116 82.5623 178.287 240.994> 353 40<168 277> 637 45<215.822 321>
VStem: 95 73<25.623 349.884>
LayerCount: 3
Fore
SplineSet
168 345 m 2
 168 110 l 2
 168 16 177.242627843 25.0445513034 229 22 c 0
 237 22 241 21 241 11 c 0
 241 3 239 -1 229 -1 c 0
 212 -1 150 0 123 0 c 0
 92 0 50 -1 37 -1 c 0
 33 -1 29 -1 29 9 c 0
 29 22 30 20 55 22 c 0
 77 23 95 24 95 113 c 2
 95 327 l 2
 95 350 94 350 77 350 c 2
 49 350 l 2
 43 350 37 352 37 358 c 2
 37 364 l 2
 37 366 38 366 41 368 c 0
 45 370 53 375 62 380 c 0
 83 392 84 392 87 401 c 0
 108 467 110 570 180 635 c 0
 210 662 247 682 306 682 c 0
 336 682 394 672 394 630 c 0
 394 608 376 586 355 586 c 0
 307 586 286 637 249 637 c 0
 196 637 168 553 168 474 c 2
 168 410 l 2
 168 397 168 393 184 393 c 2
 265 393 l 2
 272 393 277 393 277 381 c 2
 277 363 l 2
 277 356 275 353 267 353 c 2
 177 353 l 2
 171 353 168 350 168 345 c 2
EndSplineSet
Validated: 1
EndChar

StartChar: g
Encoding: 103 103 7
Width: 442
VWidth: 0
Flags: HMW
HStem: -283 59<108.67 256.89> 97 23<154.979 232.019> 368 41<326.737 404.5> 380 27<155.745 239.535>
VStem: 13 57<-221.5 -123.684> 31 59<-26 62.6171> 33 72<164.185 324.031> 287 73<168.723 329.865> 347 49<-170.722 -94.1681>
LayerCount: 3
Fore
SplineSet
201 407 m 0xd2
 267 407 301 373 303 372 c 1
 316 383 354 409 388 409 c 0
 421 409 436 391 436 373 c 0
 436 358 426 341 407 341 c 0
 374 341 363 368 347 368 c 0xe280
 327 368 319 356 319 356 c 1
 319 356 360 316 360 250 c 0
 360 146 279 97 192 97 c 0
 151 97 124 107 121 108 c 1
 121 108 90 92 90 47 c 0xe5
 90 9 115 6 176 6 c 2
 214 6 l 2
 312 6 345 1 376 -37 c 0
 389 -52 396 -80 396 -95 c 0
 396 -215 255 -283 145 -283 c 0
 73 -283 13 -253 13 -190 c 0xe880
 13 -123 91 -56 91 -56 c 1
 91 -56 31 -50 31 -2 c 0xe4
 31 45 64 81 86 100 c 0
 102 114 102 117 95 122 c 0
 81 133 33 169 33 239 c 0
 33 332 99 407 201 407 c 0xd2
347 -130 m 0
 347 -61.4762979245 221.553479485 -66.4681056775 117 -59 c 0
 113 -59 70 -102 70 -143 c 0xc880
 70 -196 136 -224 195 -224 c 0
 269 -224 347 -192 347 -130 c 0
287 252 m 0xd3
 287 338 244 380 199 380 c 0
 136 380 105 312 105 246 c 0
 105 162 148 120 194 120 c 0
 240 120 287 164 287 252 c 0xd3
EndSplineSet
Validated: 1
Layer: 2
SplineSet
201 407 m 0xd2
 267 407 301 373 303 372 c 1
 316 383 354 409 388 409 c 0
 421 409 436 391 436 373 c 0
 436 358 426 341 407 341 c 0
 374 341 363 368 347 368 c 0xe280
 327 368 319 356 319 356 c 1
 319 356 360 316 360 250 c 0
 360 146 279 97 192 97 c 0
 151 97 124 107 121 108 c 1
 121 108 90 92 90 47 c 0xe5
 90 9 115 6 176 6 c 2
 234 6 l 6
 309 6 345 1 376 -37 c 0
 389 -52 396 -80 396 -95 c 0
 396 -215 255 -283 145 -283 c 0
 73 -283 13 -253 13 -190 c 0xe880
 13 -123 91 -56 91 -56 c 1
 91 -56 31 -50 31 -2 c 0xe4
 31 45 64 81 86 100 c 0
 102 114 102 117 95 122 c 0
 81 133 33 169 33 239 c 0
 33 332 99 407 201 407 c 0xd2
118 -58 m 0
 114 -58 70 -102 70 -143 c 0xc880
 70 -196 136 -224 195 -224 c 0
 269 -224 347 -192 347 -130 c 0
 347 -67 213 -64 118 -58 c 0
287 252 m 0xd3
 287 338 244 380 199 380 c 0
 136 380 105 312 105 246 c 0
 105 162 148 120 194 120 c 0
 240 120 287 164 287 252 c 0xd3
EndSplineSet
EndChar

StartChar: h
Encoding: 104 104 8
Width: 476
VWidth: 0
Flags: W
HStem: -1 23<20.0521 65.75 154.125 189.267 279.075 322.135 411.089 456.977> 357 42<195.938 300.431> 620 25<14.0008 57.052> 662 20G<136.5 143>
VStem: 74 73<24.5026 340.549 352 611.975> 330 73<23.6682 326.895>
LayerCount: 3
Fore
SplineSet
164 338 m 0
 153 332 147 325 147 325 c 1
 147 87 l 2
 147 28 156 24 177 22 c 0
 206 19 204 20 205 12 c 0
 206 0 201 -1 190 -1 c 0
 174 -1 182 0 108 0 c 0
 64 0 49 -1 37 -1 c 0
 25 -1 20 0 20 9 c 0
 20 23 28 21 38 22 c 0
 64 25 74 28 74 82 c 2
 74 182 l 2
 74 248 74 359 73 491 c 0
 73 600 67 616 26 620 c 0
 15 621 14 627 14 632 c 0
 14 640 14 642 27 645 c 0
 117 666 133 682 140 682 c 0
 146 682 148 680 148 671 c 0
 147 646 147 609 147 572 c 2
 147 352 l 1
 176 373 233 399 291 399 c 0
 393 399 403 303 403 236 c 2
 403 163 l 2
 403 13 406 25 445 22 c 0
 456 21 457 17 457 9 c 0
 457 4 457 -1 447 -1 c 0
 436 -1 409 0 371 0 c 0
 332 0 306 -1 295 -1 c 0
 283 -1 279 -1 279 8 c 0
 279 24 285 19 307 23 c 0
 328 26 330 49 330 108 c 2
 330 227 l 2
 330 295 321 357 240 357 c 0
 206 357 180 347 164 338 c 0
EndSplineSet
Layer: 2
SplineSet
164 340 m 4
 153 334 147 328 147 327 c 6
 147 87 l 6
 147 28 156 24 177 22 c 4
 206 19 204 20 205 12 c 4
 206 0 201 -1 190 -1 c 4
 174 -1 182 0 108 0 c 4
 64 0 49 -1 37 -1 c 4
 25 -1 20 0 20 9 c 4
 20 23 28 21 38 22 c 4
 64 25 74 28 74 82 c 6
 74 182 l 6
 74 248 74 359 73 491 c 4
 73 600 67 616 26 620 c 4
 15 621 14 627 14 632 c 4
 14 640 14 642 27 645 c 4
 117 666 133 682 140 682 c 4
 146 682 148 680 148 671 c 4
 147 646 147 609 147 572 c 6
 147 352 l 5
 176 373 233 399 291 399 c 4
 393 399 403 303 403 236 c 6
 403 163 l 6
 403 13 406 25 445 22 c 4
 456 21 457 17 457 9 c 4
 457 4 457 -1 447 -1 c 4
 436 -1 409 0 371 0 c 4
 332 0 306 -1 295 -1 c 4
 283 -1 279 -1 279 8 c 4
 279 24 285 19 307 23 c 4
 328 26 330 49 330 108 c 6
 330 227 l 6
 330 295 321 359 240 359 c 4
 206 359 180 349 164 340 c 4
EndSplineSet
EndChar

StartChar: i
Encoding: 105 105 9
Width: 238
VWidth: 0
Flags: HW
HStem: -1 23<21.0354 73.0323 174.104 219.954> 390 20G<151.5 157> 569 91<88.2207 167.134>
VStem: 80 94<577.185 652.67> 90 73<28.7903 337.996>
LayerCount: 3
Back
SplineSet
90 131 m 6xe8
 90 245 l 6
 90 307 89 326 68 338 c 4
 43 352 42 351 42 358 c 4
 42 367 42 365 57 370 c 4
 110 388 147 410 156 410 c 4
 158 410 164 410 164 400 c 4
 164 303 163 354 163 157 c 6
 163 126 l 6
 163 21 177 24 200 22 c 4
 213 21 220 24 220 13 c 4
 220 -1 218 -1 211 -1 c 4
 194 -1 163 0 121 0 c 4
 81 0 41 -1 31 -1 c 4
 24 -1 21 1 21 12 c 4
 21 20 23 22 31 22 c 4
 72 22 90 23 90 131 c 6xe8
125 660 m 4
 158 660 174 636 174 614 c 4
 174 592 159 569 129 569 c 4
 99 569 80 593 80 617 c 4xf0
 80 636 93 660 125 660 c 4
EndSplineSet
Fore
SplineSet
90 131 m 2xe8
 90 245 l 2
 90 336 90 336 52 346 c 0
 43 348 41 348 41 357 c 0
 41 365 41 366 46 368 c 0
 49 369 55 371 63 373 c 0
 120 389 149 410 158 410 c 0
 160 410 166 410 166 400 c 0
 163 304 163 354 163 157 c 2
 163 108 l 2
 163 46 163 35 179 27 c 0
 199 17 220 25 220 13 c 0
 220 -1 218 -1 211 -1 c 0
 194 -1 163 0 121 0 c 0
 81 0 41 -1 31 -1 c 0
 24 -1 21 1 21 12 c 0
 21 23 31 22 40 22 c 0
 77 24 90 23 90 131 c 2xe8
125 660 m 0
 158 660 174 636 174 614 c 0
 174 592 159 569 129 569 c 0
 99 569 80 593 80 617 c 0xf0
 80 636 93 660 125 660 c 0
EndSplineSet
EndChar

StartChar: j
Encoding: 106 106 10
Width: 242
VWidth: 0
Flags: W
HStem: -283 21G<16.5 21.5> 395 20G<154.5 159.5> 569 91<79.2207 158.134>
VStem: 71 94<577.185 652.67> 90 73<-134.697 337.344>
LayerCount: 3
Fore
SplineSet
4 -265 m 0xe8
 4 -254 26 -246 49 -216 c 0
 88 -166 90 -113 90 88 c 2
 90 260 l 2
 90 336 82 335 46 343 c 0
 26 347 26 345 26 358 c 0
 26 372 24 359 101 390 c 0
 145 408 152 415 157 415 c 0
 162 415 166 415 166 405 c 0
 166 374 163 405 163 197 c 2
 163 -20 l 2
 163 -140 102 -212 78 -235 c 0
 70 -243 51 -260 37 -272 c 0
 30 -278 23 -283 20 -283 c 0
 13 -283 4 -273 4 -265 c 0xe8
116 660 m 0
 149 660 165 636 165 614 c 0
 165 592 150 569 120 569 c 0
 90 569 71 593 71 617 c 0xf0
 71 636 84 660 116 660 c 0
EndSplineSet
Layer: 2
SplineSet
90 245 m 6
 90 336 90 336 52 346 c 4
 43 348 41 348 41 357 c 4
 41 365 41 366 46 368 c 4
 49 369 55 371 63 373 c 4
 120 389 149 410 158 410 c 4
 160 410 166 410 166 400 c 4
 163 304 163 354 163 157 c 6
24 -265 m 0xe8
 24 -254 46 -246 69 -216 c 0
 108 -166 110 -113 110 88 c 2
 110 260 l 2
 110 336 99 335 63 343 c 0
 43 347 43 345 43 358 c 0
 43 372 44 359 121 390 c 0
 165 408 172 415 177 415 c 0
 182 415 186 415 186 405 c 0
 186 374 183 405 183 197 c 2
 183 -20 l 2
 183 -140 122 -212 98 -235 c 0
 90 -243 71 -260 57 -272 c 0
 50 -278 43 -283 40 -283 c 0
 33 -283 24 -273 24 -265 c 0xe8
110 660 m 0
 143 660 159 636 159 614 c 0
 159 592 144 569 114 569 c 0
 84 569 65 593 65 617 c 0xf0
 65 636 78 660 110 660 c 0
EndSplineSet
EndChar

StartChar: k
Encoding: 107 107 11
Width: 465
VWidth: 0
Flags: W
HStem: -1 24<14.0037 64.5979 151.756 203.906 258.119 292.994 395.412 449.998> 168 22<146.277 198.998> 369 23<252.158 299.412> 620 25<13.0008 56.052> 662 20G<135.5 142>
VStem: 73 73<23.6211 168 189.999 611.975>
DStem2: 231 236 271 244 0.618872 0.785492<1.85247 131.463>
LayerCount: 3
Fore
SplineSet
146 203 m 2
 146 189 152 190 162 190 c 0
 186 190 196 191 231 236 c 2
 283 302 l 2
 292 314 302 336 302 348 c 0
 302 362 291 367 270 369 c 0
 255 371 252 375 252 383 c 0
 252 390 252 392 268 392 c 0
 281 392 303 391 344 391 c 0
 383 391 405 392 417 392 c 0
 432 392 433 391 433 384 c 0
 433 352 411 399 335 321 c 0
 309 294 285 264 271 244 c 0
 260 229 254 225 254 220 c 0
 254 216 258 211 267 200 c 0
 400 25 394 22 433 22 c 0
 450 22 450 16 450 11 c 0
 450 5 447 -1 437 -1 c 0
 424 -1 402 0 358 0 c 0
 315 0 290 -1 276 -1 c 0
 261 -1 258 0 258 6 c 0
 258 20 259 21 276 21 c 0
 285 21 293 21 293 30 c 0
 293 46 279 63 213 145 c 0
 197 166 198 168 183 168 c 2
 159 168 l 2
 147 168 146 161 146 151 c 2
 146 87 l 2
 146 19 156 23 188 22 c 0
 197 22 204 21 204 9 c 0
 204 1 205 -1 189 -1 c 0
 173 -1 181 0 107 0 c 0
 68 0 48 -1 32 -1 c 0
 14 -1 14 2 14 12 c 0
 14 21 19 23 26 23 c 2
 44 23 l 2
 64 23 73 30 73 118 c 2
 73 182 l 2
 73 248 73 359 72 491 c 0
 72 600 66 616 25 620 c 0
 14 621 13 627 13 632 c 0
 13 640 13 642 26 645 c 0
 116 666 132 682 139 682 c 0
 145 682 147 680 147 671 c 0
 146 646 146 609 146 572 c 2
 146 203 l 2
EndSplineSet
Layer: 2
SplineSet
301 343 m 4
 301 357 297 366 275 369 c 6
 261 371 l 6
 252 372 252 372 252 383 c 4
 252 391 253 392 265 392 c 4
 292 392 313 391 344 391 c 4
 368 391 394 392 421 392 c 4
 431 392 433 392 433 381 c 4
 433 369 425 371 406 369 c 4
 382 367 367 354 335 321 c 4
 309 294 285 264 271 244 c 4
 260 229 254 223 254 220 c 4
 254 217 257 213 267 200 c 4
 400 25 394 22 433 22 c 4
 451 22 453 21 453 12 c 6
 453 8 l 6
 453 3 453 -1 444 -1 c 4
 413 -1 386 0 358 0 c 4
 349 0 300 -1 266 -1 c 4
 259 -1 258 1 258 6 c 4
 258 18 258 21 268 21 c 4
 279 21 293 20 293 30 c 4
 293 47 276 64 199 163 c 4
 195 167 191 168 186 168 c 6
 159 168 l 6
 147 168 147 161 147 151 c 6
 147 87 l 6
 147 22 160 23 179 22 c 4
 199 21 200 22 200 9 c 4
 200 1 200 -1 192 -1 c 4
 187 -1 122 0 108 0 c 4
 74 0 30 -1 24 -1 c 4
 16 -1 16 4 16 11 c 6
 16 14 l 6
 16 22 18 20 47 22 c 4
 70 24 74 35 74 141 c 6
 74 182 l 6
 74 248 74 361 73 493 c 4
 72 614 69 620 16 630 c 4
 11 631 11 635 11 641 c 4
 11 647 11 650 18 651 c 4
 96 663 134 682 141 682 c 4
 143 682 147 680 147 671 c 4
 147 513 146 454 146 257 c 6
 146 203 l 6
 146 190 152 190 158 190 c 6
 163 190 l 6
 185 190 196 191 231 236 c 6
 283 302 l 6
 296 319 301 332 301 343 c 4
EndSplineSet
EndChar

StartChar: l
Encoding: 108 108 12
Width: 239
VWidth: 0
Flags: HW
HStem: -1 23<21.0008 69.3342 170.309 218.988>
VStem: 85 73<28.6503 628.562>
LayerCount: 3
Fore
SplineSet
158 87 m 2
 158 26 168 24 195 22 c 0
 209 21 216 23 216 9 c 0
 216 1 217 -1 201 -1 c 0
 185 -1 193 0 119 0 c 0
 80 0 55 -1 39 -1 c 0
 21 -1 21 2 21 12 c 0
 21 22 32 23 41 23 c 0
 79 24 85 30 85 118 c 2
 85 182 l 2
 85 248 85 359 84 491 c 0
 84 600 78 616 37 620 c 0
 26 621 25 627 25 632 c 0
 25 640 25 642 38 645 c 0
 128 666 144 682 151 682 c 0
 157 682 159 680 159 671 c 0
 158 646 158 609 158 572 c 2
 158 87 l 2
EndSplineSet
EndChar

StartChar: m
Encoding: 109 109 13
Width: 715
VWidth: 0
Flags: W
HStem: -1 23<23.8433 58.5063 148.79 190.27 271.069 313.982 404.538 448.99 521.003 569.559 660.486 695.757> 363 40<205.453 332.265 452.297 550.756>
VStem: 67 73<24.085 336.094> 323 73<24.0652 335.144> 579 73<24.6943 335.578>
CounterMasks: 1 38
LayerCount: 3
Fore
SplineSet
538 22 m 0
 577 23 579 38 579 109 c 2
 579 178 l 2
 579 296 578 363 497 363 c 0
 432 363 391 318 391 318 c 1
 391 318 396 263 396 231 c 2
 396 90 l 2
 396 26 407 23 436 22 c 0
 450 22 449 19 449 10 c 0
 449 1 447 -1 444 -1 c 0
 395 -1 403 0 363 0 c 0
 325 0 315 -1 281 -1 c 0
 273 -1 270 0 271 10 c 0
 272 22 272 21 284 22 c 0
 318 24 323 26 323 129 c 2
 323 224 l 2
 323 242 322 259 321 273 c 0
 316 329 298 358 244 358 c 0
 196 358 140 327 140 321 c 2
 140 102 l 2
 140 40 142 24 175 22 c 0
 194 21 200 21 200 14 c 2
 200 8 l 2
 200 -1 199 -1 188 -1 c 0
 176 -1 122 0 107 0 c 0
 63 0 56 -1 30 -1 c 0
 20 -1 20 -1 19 9 c 0
 18 22 21 21 35 22 c 0
 49 23 67 22 67 84 c 2
 67 288 l 2
 67 330 61 333 23 343 c 0
 16 345 16 346 16 354 c 0
 16 361 15 362 20 363 c 0
 81 377 124 404 135 404 c 0
 138 404 140 403 140 395 c 0
 139 368 139 345 139 345 c 1
 139 345 204 401 295 401 c 0
 371 401 384 341 384 341 c 1
 384 341 450 403 542 403 c 0
 625 403 646 351 651 268 c 0
 652 252 652 226 652 208 c 2
 652 132 l 2
 652 23 660 22 684 22 c 0
 696 22 700 22 700 11 c 2
 700 6 l 2
 700 0 699 -1 692 -1 c 0
 663 -1 642 0 620 0 c 0
 590 0 546 -1 536 -1 c 0
 524 -1 521 -1 521 10 c 0
 521 24 525 22 538 22 c 0
EndSplineSet
Validated: 1
EndChar

StartChar: n
Encoding: 110 110 14
Width: 465
VWidth: 0
Flags: W
HStem: -1 23<20.0015 57.8063 149.051 197.364 265.002 313.745 405.805 440.025> 353 48<206.861 299.036>
VStem: 67 73<24.13 326.507> 323 73<24.7631 328.694>
LayerCount: 3
Fore
SplineSet
364 0 m 0
 327 0 290 -1 280 -1 c 0
 268 -1 265 -1 265 10 c 0
 265 22 266 21 278 22 c 0
 320 24 323 26 323 129 c 2
 323 178 l 2
 323 296 320 353 243 353 c 0
 195 353 140 315 140 309 c 2
 140 124 l 2
 140 39 140 22 180 22 c 0
 199 22 200 22 200 14 c 2
 200 8 l 2
 200 -1 199 -1 188 -1 c 0
 176 -1 122 0 107 0 c 0
 77 0 37 -1 29 -1 c 0
 20 -1 20 0 20 9 c 0
 20 23 20 20 35 22 c 0
 45 23 67 20 67 82 c 2
 67 288 l 2
 67 321 65 330 36 337 c 2
 24 340 l 2
 17 342 16 341 16 352 c 0
 16 359 16 360 21 361 c 0
 86 376 125 402 136 402 c 0
 139 402 141 401 141 393 c 0
 140 366 139 333 139 333 c 1
 139 333 210 401 290 401 c 0
 389 401 396 330 396 218 c 2
 396 102 l 2
 396 18 414 23 430 22 c 0
 441 21 444 22 444 14 c 2
 444 8 l 2
 444 0 443 -1 424 -1 c 0
 420 -1 382 0 364 0 c 0
EndSplineSet
Validated: 1
Layer: 2
SplineSet
364 1 m 4
 327 1 290 -3 280 -3 c 4
 271 -3 264 -3 265 9 c 4
 266 20 268 20 278 21 c 4
 321 25 323 18 323 89 c 6
 323 178 l 6
 323 296 320 353 243 353 c 4
 195 353 140 315 140 309 c 6
 140 104 l 6
 140 26 140 21 180 21 c 4
 202 21 200 15 200 7 c 4
 200 -2 194 -3 188 -3 c 4
 176 -3 122 1 107 1 c 4
 77 1 39 -3 31 -3 c 4
 22 -3 20 -1 20 8 c 4
 20 18 19 19 40 21 c 4
 50 22 67 20 67 72 c 6
 67 288 l 6
 67 321 65 330 36 337 c 6
 24 340 l 6
 17 342 16 342 16 352 c 4
 16 358 16 360 21 361 c 4
 81 375 129 402 133 402 c 4
 134 402 141 394 141 393 c 4
 140 374 140 334 140 334 c 5
 140 334 212 401 290 401 c 4
 389 401 396 330 396 218 c 6
 396 77 l 6
 396 63 396 24 418 22 c 6
 428 21 l 6
 439 20 444 17 444 13 c 6
 444 7 l 6
 444 -1 442 -3 423 -3 c 4
 419 -3 382 1 364 1 c 4
EndSplineSet
Validated: 1
EndChar

StartChar: o
Encoding: 111 111 15
Width: 450
VWidth: 0
Flags: W
HStem: -13 26<176.136 280.422> 377 30<176.138 279.739>
VStem: 25 84<88.7243 297.005> 344 81<96.9407 299.599>
LayerCount: 3
Fore
SplineSet
425 197 m 0
 425 92 362 -13 220 -13 c 0
 74 -13 25 91 25 197 c 0
 25 306 92 406 233 407 c 0
 366 407 425 300 425 197 c 0
226 13 m 0
 275 13 344 33 344 191 c 0
 344 303 303 377 227 377 c 0
 146 377 109 295 109 192 c 0
 109 87 146 13 226 13 c 0
EndSplineSet
Layer: 2
SplineSet
430 198 m 4
 430 93 351 -12 220 -12 c 4
 98 -12 20 92 20 198 c 4
 20 307 105 409 233 409 c 4
 352 409 430 305 430 198 c 4
226 13 m 4
 312 13 349 98 349 184 c 6
 349 192 l 5
 347 285 303 379 227 379 c 4
 146 379 104 282 104 193 c 4
 104 103 146 13 226 13 c 4
EndSplineSet
EndChar

StartChar: p
Encoding: 112 112 16
Width: 469
VWidth: 0
Flags: W
HStem: -274 23<17.0022 61.791 157.575 219.982> -4 26<205.663 291.414> 365 41<201.431 300.144>
VStem: 76 73<-246.303 12 63.7979 354.183> 361 81<102.104 295.815>
LayerCount: 3
Fore
SplineSet
246 -4 m 0
 192 -4 147 12 147 12 c 1
 147 -164 l 2
 147 -246 154 -251 199 -251 c 0
 214 -251 220 -250 220 -259 c 0
 220 -274 220 -274 203 -274 c 0
 185 -274 132 -273 114 -273 c 0
 89 -273 33 -274 26 -274 c 0
 20 -274 17 -274 17 -263 c 0
 17 -252 18 -251 25 -251 c 0
 72 -250 76 -249 76 -58 c 2
 76 324 l 2
 76 344 63 353 44 357 c 0
 27 360 26 360 26 368 c 0
 26 371 26 374 30 375 c 0
 113 395 127 409 142 409 c 0
 144 409 148 408 148 400 c 0
 147 374 146 340 146 340 c 1
 154 346 195 406 277 406 c 0
 382 406 442 304 442 202 c 0
 442 110 391 -4 246 -4 c 0
249 22 m 0
 294 22 361 61 361 196 c 0
 361 312 297 365 244 365 c 0
 183 365 149 322 149 318 c 2
 149 117 l 2
 149 73 199 22 249 22 c 0
EndSplineSet
Validated: 1
Layer: 2
SplineSet
146 340 m 5
 154 346 195 406 277 406 c 4
 382 406 442 304 442 202 c 4
 442 99 378 -4 249 -4 c 4
 188 -4 149 11 149 11 c 5
 149 -184 l 6
 149 -247 154 -248 193 -248 c 6
 199 -248 l 6
 214 -248 220 -250 220 -259 c 4
 220 -271 214 -272 203 -272 c 4
 185 -272 132 -270 114 -270 c 4
 68 -270 33 -274 26 -274 c 4
 20 -274 17 -269 17 -263 c 4
 17 -257 19 -250 26 -250 c 4
 58 -249 69 -250 73 -213 c 4
 75 -189 76 81 76 209 c 6
 76 324 l 6
 76 344 63 353 44 357 c 4
 27 360 26 360 26 368 c 4
 26 371 26 374 30 375 c 4
 109 394 131 409 139 409 c 4
 141 409 148 401 148 400 c 4
 147 378 146 340 146 340 c 5
249 22 m 4
 294 22 361 61 361 196 c 4
 361 312 297 365 244 365 c 4
 183 365 149 322 149 318 c 6
 149 117 l 6
 149 73 199 22 249 22 c 4
EndSplineSet
Validated: 1
EndChar

StartChar: q
Encoding: 113 113 17
Width: 475
VWidth: 0
Flags: W
HStem: -274 23<242.144 308.352 405.317 459.964> -7 33<188.875 301.815> 382 30<164.399 266.413>
VStem: 23 87<112.142 297.868> 321 73<-247.01 18 34.0505 342.156>
LayerCount: 3
Fore
SplineSet
23 205 m 0
 23 327 120 412 220 412 c 0
 294 412 359 383 359 383 c 1
 386 407 386 407 390 407 c 0
 396 407 400 406 400 399 c 0
 399 350 394 430 394 -85 c 2
 394 -138 l 2
 394 -243 397 -250 446 -251 c 0
 457 -251 460 -253 460 -261 c 0
 460 -273 455 -274 449 -274 c 0
 408 -274 386 -273 359 -273 c 0
 336 -273 293 -274 248 -274 c 0
 242 -274 239 -273 239 -265 c 2
 239 -260 l 2
 239 -252 241 -251 252 -251 c 2
 272 -251 l 2
 318 -251 323 -248 323 -63 c 2
 323 18 l 1
 323 18 276 -7 210 -7 c 0
 60 -7 23 135 23 205 c 0
257 26 m 0
 319 26 321 59 321 72 c 2
 321 289 l 2
 321 343 260 382 215 382 c 0
 150 381 110 329 110 243 c 0
 110 152 130 26 257 26 c 0
EndSplineSet
Validated: 1
Layer: 2
SplineSet
23 206 m 4
 23 329 121 412 220 412 c 4
 294 412 359 383 359 383 c 5
 386 407 386 407 390 407 c 4
 396 407 400 406 400 399 c 4
 399 350 394 390 394 -125 c 6
 394 -178 l 6
 394 -243 397 -248 446 -248 c 4
 457 -248 460 -251 460 -259 c 4
 460 -275 449 -272 441 -272 c 4
 420 -272 384 -271 359 -271 c 4
 336 -271 291 -274 246 -274 c 4
 242 -274 239 -273 239 -265 c 6
 239 -260 l 6
 239 -245 241 -251 296 -246 c 4
 314 -244 321 -225 321 -46 c 6
 321 17 l 5
 321 17 276 -7 210 -7 c 4
 60 -7 23 137 23 206 c 4
257 26 m 4
 319 26 321 59 321 72 c 6
 321 289 l 6
 321 343 260 382 215 382 c 4
 150 381 110 329 110 243 c 4
 110 152 130 26 257 26 c 4
EndSplineSet
Validated: 1
EndChar

StartChar: r
Encoding: 114 114 18
Width: 332
VWidth: 0
Flags: W
HStem: -1 23<13.0061 75.4782 170.628 240.989> 349 59<211.406 289.5>
VStem: 86 73<26.0072 323 339 348.406>
LayerCount: 3
Fore
SplineSet
29 22 m 2
 37 22 l 2
 78 22 86 25 86 117 c 2
 86 284 l 2
 86 346 72 345 48 355 c 0
 42 358 37 363 37 367 c 0
 37 371 40 374 50 376 c 0
 125 395 142 411 153 411 c 0
 156 411 159 410 159 402 c 0
 158 385 158 339 158 339 c 1
 158 339 217 408 271 408 c 0
 308 408 327 382 327 355 c 0
 327 334 313 311 291 311 c 0
 254 311 251 349 222 349 c 0
 194 349 160 299 160 291 c 0
 159 217 159 167 159 130 c 0
 159 28 163 22 215 22 c 0
 226 22 241 25 241 14 c 0
 241 7 243 -1 232 -1 c 0
 205 -1 165 0 123 0 c 0
 91 0 33 -1 26 -1 c 0
 15 -1 13 1 13 10 c 0
 13 21 20 22 29 22 c 2
EndSplineSet
Layer: 2
SplineSet
291 311 m 4
 254 311 251 349 222 349 c 4
 194 349 160 299 160 291 c 4
 159 217 159 165 159 128 c 4
 159 26 164 21 212 21 c 6
 227 21 l 6
 235 21 241 19 241 13 c 4
 241 8 243 -3 232 -3 c 4
 205 -3 158 1 116 1 c 4
 84 1 30 -3 23 -3 c 4
 12 -3 10 2 10 9 c 4
 10 20 14 21 35 21 c 4
 85 22 86 44 86 117 c 6
 86 314 l 6
 86 351 50 353 42 360 c 4
 40 361 40 375 42 375 c 4
 115 391 146 411 151 411 c 4
 153 411 161 405 161 402 c 4
 160 385 159 339 159 339 c 5
 159 339 217 408 271 408 c 4
 308 408 327 382 327 355 c 4
 327 334 313 311 291 311 c 4
EndSplineSet
Validated: 1
EndChar

StartChar: s
Encoding: 115 115 19
Width: 350
VWidth: 0
Flags: W
HStem: -13 26<148.41 228.371> 381 18<146.303 213.2>
VStem: 52 30<87.8477 136.757> 64 60<275.144 360.939> 253 61<35.1125 124.119>
LayerCount: 3
Fore
SplineSet
264 392 m 0xd8
 266 392 285 399 290 399 c 0
 298 399 300 392 300 381 c 0
 300 362 302 309 306 290 c 0
 307 284 305 282 292 280 c 0
 280 278 279 287 276 292 c 0
 264 316 241 381 176 381 c 0
 148 381 124 362 124 321 c 0xd8
 124 275 167 258 211 233 c 0
 262 204 314 179 314 105 c 0
 314 17 239 -13 196 -13 c 0
 154 -13 138 -2 114 -2 c 0
 104 -2 76 -8 72 -8 c 0
 60 -8 59 -3 59 5 c 0
 59 13 61 24 61 39 c 0
 61 83 52 119 52 128 c 0
 52 135 66 137 70 137 c 0
 76 137 78 133 82 123 c 0xe8
 108 48 147 13 194 13 c 0
 226 13 253 42 253 77 c 0
 253 170 64 167 64 293 c 0
 64 361 114 405 183 405 c 0
 232 405 256 392 264 392 c 0xd8
EndSplineSet
Validated: 1
Layer: 2
SplineSet
264 392 m 4xd8
 266 392 285 399 290 399 c 4
 298 399 301 392 301 381 c 4
 301 372 300 359 300 348 c 4
 300 322 306 297 306 288 c 4
 306 282 302 280 294 279 c 4
 281 277 282 282 280 285 c 4
 268 301 248 381 176 381 c 4
 148 381 124 362 124 321 c 4xd8
 124 275 167 258 211 233 c 4
 262 204 314 179 314 105 c 4
 314 17 239 -13 196 -13 c 4
 154 -13 138 -2 114 -2 c 4
 104 -2 76 -8 72 -8 c 4
 60 -8 58 -3 58 5 c 4
 58 13 61 24 61 39 c 4
 61 78 52 106 52 121 c 4
 52 134 55 135 65 137 c 4
 73 139 79 133 82 123 c 4xe8
 109 48 147 13 194 13 c 4
 226 13 253 42 253 77 c 4
 253 170 64 167 64 293 c 4
 64 361 114 404 183 404 c 4
 232 404 256 392 264 392 c 4xd8
EndSplineSet
Validated: 1
EndChar

StartChar: t
Encoding: 116 116 20
Width: 312
VWidth: 0
Flags: W
HStem: -10 43<169.439 260.354> 350 43<151.006 291>
VStem: 78 73<49.9788 346.904>
LayerCount: 3
Fore
SplineSet
60 347 m 2
 47 347 l 2
 31 347 30 348 30 361 c 0
 30 372 52 376 120 454 c 0
 127 461 133 467 139 467 c 0
 150 467 151 461 151 451 c 0
 151 431 150 413 150 403 c 0
 150 395 150 393 165 393 c 2
 276 393 l 2
 283 393 291 393 291 384 c 2
 291 366 l 2
 291 354 291 350 276 350 c 2
 169 350 l 2
 156 350 151 349 151 332 c 2
 151 138 l 2
 151 63 167 33 223 33 c 0
 246 33 269 38 280 40 c 0
 284 41 288 36 288 31 c 0
 288 21 224 -10 180 -10 c 0
 78 -10 78 71 78 138 c 2
 78 320 l 2
 78 336 78 347 60 347 c 2
EndSplineSet
Validated: 1
Layer: 2
SplineSet
151 138 m 6
 151 48 170 32 219 32 c 4
 249 32 268 41 280 44 c 4
 287 46 292 35 292 28 c 4
 292 12 205 -10 185 -10 c 4
 84 -10 78 54 78 138 c 6
 78 320 l 6
 78 336 78 347 60 347 c 4
 51 347 40 347 37 348 c 4
 32 349 30 356 30 361 c 4
 30 372 52 376 120 454 c 4
 127 461 133 467 139 467 c 4
 150 467 151 456 151 451 c 4
 151 431 150 412 150 402 c 4
 150 394 150 392 165 392 c 6
 279 392 l 6
 286 392 292 392 292 373 c 6
 292 367 l 6
 292 352 291 349 276 349 c 6
 164 349 l 6
 151 349 151 349 151 332 c 6
 151 138 l 6
EndSplineSet
Validated: 1
EndChar

StartChar: u
Encoding: 117 117 21
Width: 492
VWidth: 0
Flags: HMW
HStem: -11 40<195.63 292.102> 368 23<29.003 83.6976 257 327.102>
VStem: 90 73<63.0391 366.228> 340 73<40.6777 50 53.6012 361.709>
LayerCount: 3
Fore
SplineSet
343 51 m 1
 317 19 272 -11 217 -11 c 0
 98 -11 90 85 90 181 c 2
 90 331 l 2
 90 361 77 367 53 368 c 0
 31 369 29 367 29 380 c 0
 29 386 30 391 34 391 c 2
 156 391 l 2
 160 391 166 390 166 376 c 0
 166 324 163 232 163 199 c 0
 163 141 163 101 179 71 c 0
 194 43 216 29 251 29 c 0
 310 29 340 76 340 76 c 1
 340 305 l 2
 340 347 340 365 283 368 c 0
 250 370 249 368 249 379 c 2
 249 382 l 2
 249 390 252 391 257 391 c 2
 406 391 l 2
 411 391 414 390 414 376 c 0
 414 352 413 249 413 207 c 2
 413 144 l 2
 413 58 414 45 432 41 c 0
 466 34 470 35 470 27 c 2
 470 21 l 2
 470 9.87164211305 464.747516636 18.4801961467 389 1 c 0
 367 -4 354 -9 348 -9 c 0
 344 -9 343 -7 343 -3 c 2
 343 51 l 1
EndSplineSet
Validated: 524289
Layer: 2
SplineSet
338 50 m 1x78
 338 50 291 -12 222 -12 c 0
 103 -12 90 79 90 180 c 2
 90 334 l 2
 90 364 78 370 57 372 c 0
 32 374 29 373 29 384 c 0
 29 389 30 396 34 396 c 2
 154 396 l 2
 159 396 166 392 166 376 c 0
 166 324 163 258 163 198 c 0
 163 140 163 100 179 70 c 0
 194 42 216 28 251 28 c 0
 294 28 338 60 338 78 c 2
 338 308 l 2
 338 350 337 369 291 372 c 0
 249 375 247 372 247 383 c 2
 247 386 l 2
 247 394 250 396 255 396 c 2
 400 396 l 2
 405 396 410 394 410 378 c 0
 410 354 407 301 407 206 c 2
 407 145 l 2
 407 29 407 47 453 36 c 0
 461 34 464 35 464 28 c 0xb8
 464 26 464 24 464 22 c 0
 464 18 463 16 455 15 c 0
 441 12 410 10 348 -8 c 1
 343 -8 339 -3 339 -2 c 2
 338 50 l 1x78
EndSplineSet
Validated: 1
EndChar

StartChar: v
Encoding: 118 118 22
Width: 452
VWidth: 0
Flags: W
HStem: -6 21G<206 218> 373 24<13.1387 52.8447 148.969 200.923 264.305 326.209 384.251 435.808>
DStem2: 238 94 233 16 0.38933 0.921098<0 264.802>
LayerCount: 3
Fore
SplineSet
192 376 m 0
 150 376 148 363 148 354 c 2
 148 352 l 2
 148 310 226 130 238 94 c 1
 284 202 l 2
 316 278 331 326 331 343 c 0
 331 362 322 370 299 373 c 0
 285 375 268 376 267 377 c 0
 260 382 261 397 270 397 c 0
 284 397 336 393 354 393 c 0
 389 393 413 397 427 397 c 0
 434 397 436 393 436 391 c 2
 436 389 l 2
 436 373 430 376 409 373 c 0
 374 368 372 347 315 210 c 2
 233 16 l 2
 226 -1 222 -6 214 -6 c 2
 210 -6 l 2
 202 -6 199 -2 195 8 c 2
 92 276 l 2
 67 341 59 369 32 373 c 0
 17 376 13 373 13 389 c 0
 13 394 16 397 21 397 c 0
 28 397 96 393 108 393 c 0
 128 393 164 397 194 397 c 0
 198 397 201 392 201 387 c 0
 201 382 200 376 192 376 c 0
EndSplineSet
Validated: 1
Layer: 2
SplineSet
192 375 m 4
 150 375 148 363 148 354 c 6
 148 352 l 6
 148 310 226 130 238 94 c 5
 284 202 l 6
 316 278 331 326 331 343 c 4
 331 362 322 369 299 372 c 4
 285 374 268 375 267 376 c 4
 260 381 260 396 269 396 c 6
 428 396 l 6
 435 396 436 392 436 390 c 6
 436 388 l 6
 436 372 430 375 409 372 c 4
 374 367 372 347 315 210 c 6
 233 16 l 6
 226 -1 222 -6 214 -6 c 6
 210 -6 l 6
 202 -6 199 -2 195 8 c 6
 92 276 l 6
 68 338 62 353 51 364 c 4
 45 370 39 371 32 372 c 4
 17 375 13 372 13 388 c 4
 13 393 16 396 21 396 c 6
 194 396 l 6
 198 396 201 391 201 386 c 4
 201 381 200 375 192 375 c 4
EndSplineSet
Validated: 1
EndChar

StartChar: w
Encoding: 119 119 23
Width: 714
VWidth: 0
Flags: W
HStem: -6 21G<227 240 448 462.5> 373 24<15.1064 58.1917 154.089 207.98 271.054 318.008 401.639 457.964 536.037 589.239 643.858 687.952>
DStem2: 260 84 257 16 0.442247 0.896893<0 179.631> 484 91 486 28 0.410781 0.911734<0 279.83>
LayerCount: 3
Fore
SplineSet
457 -6 m 0
 439 -6 438 0 430 26 c 2
 364 233 l 1
 257 16 l 2
 247 -5 246 -6 234 -6 c 0
 220 -6 218 -1 208 22 c 2
 92 297 l 2
 66 359 58 370 33 373 c 0
 18 375 15 373 15 389 c 0
 15 394 18 397 23 397 c 0
 30 397 86 393 104 393 c 0
 130 393 188 397 201 397 c 0
 205 397 208 392 208 387 c 0
 208 382 208 373 200 373 c 0
 158 373 154 368 154 359 c 0
 154 346 260 84 260 84 c 1
 352 267 l 1
 326 346 l 2
 316 375 299 372 290 373 c 0
 272 375 271 373 271 389 c 0
 271 394 274 397 279 397 c 0
 291 397 332 393 358 393 c 0
 386 393 421 397 451 397 c 0
 457 397 458 392 458 387 c 0
 458 374 455 373 446 373 c 2
 429 373 l 2
 412 373 401 370 401 356 c 0
 401 327 470 132 484 91 c 1
 535 202 l 2
 571 281 592 335 592 350 c 0
 592 363 584 371 563 373 c 0
 559 373 550 374 546 374 c 0
 539 374 536 375 536 387 c 0
 536 392 538 397 542 397 c 0
 567 397 593 393 618 393 c 0
 638 393 658 397 678 397 c 0
 688 397 688 390 688 389 c 2
 688 387 l 2
 688 373 684 375 670 373 c 0
 634 368 629 346 568 210 c 2
 486 28 l 2
 472 -4 468 -6 457 -6 c 0
EndSplineSet
Validated: 1
Layer: 2
SplineSet
457 -6 m 4
 439 -6 438 0 430 26 c 6
 364 233 l 5
 257 16 l 6
 247 -5 246 -6 234 -6 c 4
 220 -6 218 -1 208 22 c 6
 92 297 l 6
 66 359 59 372 33 372 c 4
 18 372 15 372 15 388 c 4
 15 393 18 396 23 396 c 6
 201 396 l 6
 205 396 208 391 208 386 c 4
 208 381 208 372 200 372 c 4
 158 372 154 368 154 359 c 4
 154 346 260 84 260 84 c 5
 352 267 l 5
 326 346 l 6
 318 370 302 372 290 372 c 4
 272 372 271 372 271 388 c 4
 271 393 274 396 279 396 c 6
 451 396 l 6
 457 396 458 391 458 386 c 4
 458 373 455 372 446 372 c 6
 429 372 l 6
 412 372 401 370 401 356 c 4
 401 327 470 132 484 91 c 5
 535 202 l 6
 571 281 592 335 592 350 c 4
 592 363 584 370 563 372 c 4
 559 372 550 373 546 373 c 4
 539 373 536 374 536 386 c 4
 536 391 538 396 542 396 c 6
 678 396 l 6
 688 396 688 389 688 388 c 6
 688 386 l 6
 688 372 684 374 670 372 c 4
 634 367 629 346 568 210 c 6
 486 28 l 6
 472 -4 468 -6 457 -6 c 4
EndSplineSet
Validated: 1
EndChar

StartChar: x
Encoding: 120 120 24
Width: 456
VWidth: 0
Flags: W
HStem: -3 24<21.0142 69.5 124.74 171.931 240.025 279.948 375.5 431.965> 373 24<26.0044 82.0034 180.453 216.948 261.032 306.298 365.256 419.968>
DStem2: 216 274 105 330 0.541764 -0.840531<-84.9952 43.859 85.6027 235.819> 126 100 182 132 0.623143 0.782108<-45.9141 103.499 176.159 301.176>
LayerCount: 3
Fore
SplineSet
217 386 m 0
 217 376 209 375 200 373 c 0
 190 371 179 369 179 352 c 0
 179 337 200 302 216 274 c 2
 238 236 l 1
 270 283 l 2
 280 298 307 334 307 355 c 0
 307 369 300 374 270 376 c 0
 265 376 261 378 261 386 c 0
 261 397 266 397 269 397 c 0
 281 397 329 393 340 393 c 0
 369 393 400 397 410 397 c 0
 415 397 420 396 420 388 c 2
 420 386 l 2
 420 377 417 378 391 373 c 0
 349 365 322 313 278 250 c 1
 252 215 l 1
 266 193 274 183 278 176 c 2
 352 63 l 2
 369 36 381 23 402 21 c 0
 420 20 432 19 432 10 c 0
 432 -3 425 -3 421 -3 c 0
 405 -3 357 1 330 1 c 0
 312 1 259 -3 253 -3 c 0
 238 -3 240 4 240 9 c 0
 240 16 242 18 250 19 c 0
 262 21 280 20 280 34 c 0
 280 48 253 93 233 126 c 2
 208 167 l 1
 182 132 l 2
 145 81 124 56 124 38 c 0
 124 25 134 21 156 21 c 0
 167 21 172 16 172 10 c 0
 172 4 166 -3 160 -3 c 0
 144 -3 100 1 84 1 c 0
 64 1 34 -3 29 -3 c 0
 24 -3 21 3 21 8 c 0
 21 15 22 21 34 21 c 0
 63 22 66 22 126 100 c 2
 172 160 l 1
 195 187 l 1
 155 249 l 1
 105 330 l 2
 83 367 75 371 46 373 c 0
 32 374 26 372 26 385 c 0
 26 391 27 397 34 397 c 0
 47 397 112 393 126 393 c 0
 154 393 178 397 205 397 c 0
 212 397 217 395 217 386 c 0
EndSplineSet
Validated: 1
Layer: 2
SplineSet
252 215 m 5
 266 193 274 183 278 176 c 6
 352 63 l 6
 369 36 381.048495415 22.6116541988 402 21 c 4
 420.048495415 19.6116541988 432 19 432 10 c 4
 432 -3 425 -3 421 -3 c 4
 405 -3 357 1 330 1 c 4
 312 1 259 -3 253 -3 c 4
 238 -3 240 4 240 9 c 4
 240 16 242 18 250 19 c 4
 262 21 280 20 280 34 c 4
 280 48 253 93 233 126 c 6
 208 167 l 5
 182 130 l 6
 145 79 124 56 124 38 c 4
 124 25 134 22 156 21 c 4
 167 21 172 17 171 9 c 4
 170 3 169 -3 160 -3 c 4
 144 -3 100 1 84 1 c 4
 64 1 34 -3 29 -3 c 4
 24 -3 21 3 21 8 c 4
 21 15 22 21 34 21 c 4
 63 22 66 22 126 100 c 6
 172 160 l 5
 195 187 l 5
 155 249 l 6
 133 283 109 327 86 359 c 4
 77 371 67 372 46 372 c 4
 32 372 26 371 26 384 c 4
 26 390 27 396 34 396 c 6
 208 396 l 6
 215 396 217 394 217 385 c 4
 217 376 212 377 201 375 c 4
 191 373 179 371 179 354 c 4
 179 339 200 302 216 274 c 6
 238 236 l 5
 269 283 l 6
 279 298 306 336 306 357 c 4
 306 371 297 373 267 375 c 4
 262 375 260 377 260 385 c 4
 260 396 263 396 266 396 c 6
 409 396 l 6
 414 396 419 395 419 387 c 6
 419 385 l 6
 419 376 416 377 390 372 c 4
 348 364 321 312 277 249 c 5
 252 215 l 5
EndSplineSet
Validated: 1
EndChar

StartChar: y
Encoding: 121 121 25
Width: 510
VWidth: 0
Flags: W
HStem: -286 77<30.5892 103.013> 373 24<9.17813 50.2741 149.196 204.923 295.181 354.734 432.336 478.366>
DStem2: 131 -146 139 -204 0.444225 0.895915<-73.9483 150.719 241.035 437.253>
LayerCount: 3
Fore
SplineSet
58 -286 m 0
 20 -286 3 -262 3 -238 c 0
 3 -215 19 -192 49 -192 c 0
 74 -192 80 -209 88 -209 c 0
 94 -209 106 -198 131 -146 c 2
 196 -10 l 1
 89 276 l 2
 53 372 46 373 23 373 c 0
 14 373 9 374 9 389 c 0
 9 394 14 397 19 397 c 0
 33 397 89 393 101 393 c 0
 121 393 168 397 198 397 c 0
 202 397 205 392 205 387 c 0
 205 382 204 373 196 373 c 2
 190 373 l 2
 159 373 146 368 146 348 c 0
 146 322 184 225 242 68 c 1
 302 193 361 312 361 343 c 0
 361 362 352 371 307 373 c 0
 296 373 295 376 295 380 c 0
 295 394 298 397 305 397 c 0
 315 397 367 393 392 393 c 0
 426 393 455 397 469 397 c 0
 480 397 482 392 482 389 c 2
 482 382 l 2
 482 375 477 374 471 373 c 0
 429 368 418 359 377 276 c 2
 139 -204 l 2
 113 -256 96 -286 58 -286 c 0
EndSplineSet
Validated: 1
Layer: 2
SplineSet
196 0 m 1
 92 276 l 2
 69 338 62 353 51 364 c 0
 45 370 39 371 32 372 c 0
 17 375 13 372 13 388 c 0
 13 393 16 396 21 396 c 2
 194 396 l 2
 198 396 201 391 201 386 c 0
 201 381 200 375 192 375 c 0
 150 375 148 363 148 354 c 2
 148 352 l 2
 148 310 229 114 241 78 c 1
 308 205 l 1
 354 274 371 326 371 343 c 0
 371 362 362 369 339 372 c 0
 325 374 308 375 307 376 c 0
 300 381 300 396 309 396 c 2
 468 396 l 2
 475 396 476 392 476 390 c 2
 476 388 l 2
 476 372 470 375 449 372 c 0
 414 367 410 344 345 212 c 2
EndSplineSet
Validated: 3
EndChar

StartChar: z
Encoding: 122 122 26
Width: 232
VWidth: 0
Flags: W
HStem: 146 80<80.393 151.607>
VStem: 76 80<150.393 221.607>
LayerCount: 3
Fore
SplineSet
76 186 m 0
 76 208 94 226 116 226 c 0
 138 226 156 208 156 186 c 0
 156 164 138 146 116 146 c 0
 94 146 76 164 76 186 c 0
EndSplineSet
Validated: 1
EndChar

StartChar: A
Encoding: 65 65 27
Width: 725
VWidth: 0
Flags: W
HStem: -5 31<26.0266 97.3269 147.287 261.886 414.004 503.627 612.1 690.991> 240 36<222 419>
DStem2: 116 79 208 240 0.348419 0.937339<-10.4014 182.966 221.588 507.288> 373 644 321 544 0.364338 -0.931267<74.1811 359.466 397.728 604.362>
LayerCount: 3
Fore
SplineSet
321 544 m 1
 222 276 l 1
 419 276 l 1
 321 544 l 1
596 74 m 2
 611 35 616 27 663 27 c 2
 668 27 l 2
 688 27 691 26 691 12 c 0
 691 2 691 -5 672 -5 c 0
 651 -5 606 1 554 1 c 0
 516 1 434 -5 429 -5 c 0
 420 -5 414 -2 414 10 c 0
 414 23 417 26 428 27 c 0
 491 30 504 25 504 46 c 0
 504 52 504 60 432 240 c 1
 208 240 l 1
 163 120 147 85 146 52 c 0
 146 26 158 26 226 26 c 2
 234 26 l 2
 250 26 262 23 262 13 c 0
 262 -5 252 -5 246 -5 c 0
 229 -5 146 1 122 1 c 0
 115 1 55 -5 40 -5 c 0
 30 -5 26 -4 26 12 c 0
 26 22 31 25 44 26 c 0
 87 28 92 20 116 79 c 0
 194 275 285 528 321 622 c 0
 331 648 329 650 345 650 c 2
 355 650 l 2
 361 650 371 649 373 644 c 2
 596 74 l 2
EndSplineSet
Validated: 1
EndChar

StartChar: B
Encoding: 66 66 28
Width: 558
VWidth: 0
Flags: W
HStem: 0 31<32.0045 107.327 216.698 365.875> 333 26<212 316.701> 624 31<36.0374 109.352> 631 29<215.305 339.47>
VStem: 112 100<32.325 333 359 622.822> 408 96<434.629 574.589> 435 103<94.6035 250.893>
LayerCount: 3
Fore
SplineSet
138 653 m 0xea
 194 653 200 660 313 660 c 0
 365 660 504 641 504 506 c 0xdc
 504 379 342 350 342 350 c 1
 342 350 538 336 538 166 c 0
 538 19 390 0 278 0 c 0
 223 0 162 1 160 1 c 0
 97 1 63 -5 46 -5 c 0
 37 -5 33 -3 33 2 c 0
 32 10 32 13 32 16 c 0
 32 26 38 24 78 26 c 0
 96 27 112 29 112 85 c 2
 112 575 l 2
 112 622 109 624 64 624 c 2
 54 624 l 2
 39 624 36 628 36 637 c 0
 36 642 36 655 47 655 c 0
 78 654 120 653 138 653 c 0xea
408 502 m 0
 408 574 353 631 281 631 c 2
 259 631 l 2
 218 631 212 631 212 581 c 2
 212 359 l 1
 249 359 l 2
 322 359 408 400 408 502 c 0
435 182 m 0xca
 435 288 351 333 279 333 c 2
 212 333 l 1
 212 85 l 2
 212 40 220 31 247 31 c 2
 301 31 l 2
 394 31 435 102 435 182 c 0xca
EndSplineSet
Validated: 1
EndChar

StartChar: C
Encoding: 67 67 29
Width: 710
VWidth: 0
Flags: W
HStem: -18 32<299.63 465.365> 640 27<301.475 451.57>
VStem: 20 107<203.731 437.115> 599 18<477.035 506.403>
LayerCount: 3
Fore
SplineSet
127 320 m 0
 127 118 252 14 384 14 c 0
 545 14 600 169 606 171 c 0
 611 173 617 170 617 167 c 2
 617 167 612 98 607 59 c 0
 603 28 602 32 581 28 c 0
 568 26 552 23 544 19 c 0
 480 -8 424 -18 372 -18 c 0
 139 -18 20 155 20 322 c 0
 20 485 141 667 375 667 c 0
 482 667 572 614 574 614 c 0
 576 614 577 616 579 619 c 2
 585 629 l 2
 588 633 592 636 597 636 c 0
 604 636 608 636 609 616 c 0
 614 539 617 499 617 486 c 0
 617 480 617 477 609 477 c 0
 600 477 600 482 599 485 c 0
 575 563 480 640 378 640 c 0
 215 640 127 479 127 320 c 0
EndSplineSet
Validated: 1
EndChar

StartChar: D
Encoding: 68 68 30
Width: 730
VWidth: 0
Flags: W
HStem: -2 33<47.7487 108.539 216.623 397.724> 618 33<36.2541 107.9 183.31 405.675>
VStem: 112 100<34.0465 614.081> 575 114<203.425 449.82>
LayerCount: 3
Fore
SplineSet
150 644 m 0
 184 644 245 651 313 651 c 0
 443 651 689 614 689 338 c 0
 689 8 390 -2 278 -2 c 0
 223 -2 162 1 160 1 c 0
 109 1 69 -4 61 -4 c 0
 50 -4 46 -3 47 16 c 0
 48 26 51 25 91 28 c 0
 98 29 112 29 112 85 c 2
 112 562 l 2
 112 609 109 616 64 616 c 2
 54 616 l 2
 39 616 36 620 36 629 c 0
 36 634 36 648 47 648 c 0
 60 648 72 644 150 644 c 0
212 571 m 2
 212 85 l 2
 212 32 220 31 280 31 c 2
 290 31 l 2
 534 31 575 219 575 317 c 0
 575 446 529 520 468 569 c 0
 415 612 354 618 286 618 c 0
 212 618 212 611 212 571 c 2
EndSplineSet
Validated: 1
EndChar

StartChar: H
Encoding: 72 72 34
Width: 812
VWidth: 0
Flags: W
HStem: -5 31<38.0019 116.478 232.093 336.974 498.002 589.478 703.778 769.993> 312 31<223 596> 621 31<46.003 114.209 233.145 333.953 504.005 587.209 707.944 773.966>
VStem: 123 100<30.9547 312 343 616.147> 596 100<28.9603 312 343 615.995>
LayerCount: 3
Fore
SplineSet
223 127 m 2
 223 34 224 29 281 26 c 2
 320 24 l 2
 335 23 337 18 337 9 c 0
 337 2 335 -5 327 -5 c 0
 293 -5 222 1 178 1 c 0
 118 1 73 -5 50 -5 c 0
 37 -5 38 3 38 8 c 2
 38 12 l 2
 38 29 68 22 98 28 c 0
 120 32 123 42 123 129 c 2
 123 520 l 2
 123 600 123 616 81 621 c 0
 70 622 62 623 57 623 c 0
 45 624 46 626 46 637 c 0
 46 648 47 652 60 652 c 0
 71 652 136 647 171 647 c 0
 241 647 301 652 324 652 c 0
 333 652 334 641 334 635 c 0
 334 622 327 621 308 621 c 2
 266 621 l 2
 229 621 223 603 223 512 c 2
 223 343 l 1
 596 343 l 1
 596 520 l 2
 596 600 596 616 554 621 c 0
 544 622 515 622 509 624 c 0
 502 626 504 630 504 633 c 2
 504 639 l 2
 504 650 506 652 539 652 c 0
 550 652 609 647 644 647 c 0
 714 647 741 652 764 652 c 0
 773 652 774 641 774 635 c 0
 774 622 769 621 750 621 c 0
 712 620 696 623 696 512 c 2
 696 127 l 2
 696 48 699 31 727 26 c 0
 768 19 770 27 770 9 c 0
 770 2 770 -5 762 -5 c 0
 713 -5 683 1 649 1 c 0
 601 1 540 -5 510 -5 c 0
 497 -5 498 3 498 8 c 2
 498 12 l 2
 498 29 536 21 571 28 c 0
 593 32 596 42 596 129 c 2
 596 312 l 1
 223 312 l 1
 223 127 l 2
EndSplineSet
Validated: 1
EndChar

StartChar: I
Encoding: 73 73 35
Width: 332
VWidth: 0
Flags: W
HStem: -5 31<39.0019 100.305 214.32 284.961> 621 31<29.3262 94.4169 216.619 278.953>
VStem: 106 100<28.7165 614.048>
LayerCount: 3
Fore
SplineSet
106 129 m 2
 106 523 l 2
 106 606 101 615 57 621 c 0
 29.1860717542 624.792808397 29 622 29 633 c 2
 29 639 l 2
 29 650 36 652 49 652 c 0
 60 652 119 647 154 647 c 0
 224 647 246 652 269 652 c 0
 278 652 279 641 279 635 c 0
 279 622 272 621 253 621 c 2
 247 621 l 2
 214 621 206 603 206 512 c 2
 206 127 l 2
 206 52 209 31 237 26 c 0
 273 20 285 28 285 9 c 0
 285 2 283 -5 275 -5 c 0
 268 -5 216 1 159 1 c 0
 111 1 77 -5 51 -5 c 0
 38 -5 39 3 39 8 c 2
 39 12 l 2
 39 28 55 21 81 26 c 0
 103 30 106 42 106 129 c 2
EndSplineSet
Validated: 1
EndChar

StartChar: J
Encoding: 74 74 36
Width: 304
VWidth: 0
Flags: W
HStem: -210 76<-37 88> 621 31<29.0089 102.988 212.885 274.988>
VStem: 108 100<-39.0509 617.663>
LayerCount: 3
Fore
SplineSet
44 621 m 2
 30 621 29 631 29 637 c 0
 29 645 32 652 41 652 c 0
 70 652 110 647 154 647 c 16
 198 647 232 652 265 652 c 0
 271 652 275 646 275 637 c 0
 275 621 258 622 248 621 c 0
 224 618 208 621 208 575 c 2
 208 78 l 2
 208 -49 149 -121 79 -169 c 0
 40 -196 3 -210 -16 -210 c 0
 -58 -210 -84 -174 -84 -142 c 0
 -84 -112 -67 -85 -29 -85 c 0
 15 -85 37 -134 72 -134 c 0
 104 -134 108 -29 108 55 c 2
 108 563 l 2
 108 609 107 621 52 621 c 2
 44 621 l 2
EndSplineSet
Validated: 1
EndChar

StartChar: N
Encoding: 78 78 39
Width: 810
VWidth: 0
Flags: W
HStem: -5 31<56.0021 134.625 198.937 287.988> 623 32<38.0466 116.045 538.007 631.317 700.824 778.894>
VStem: 152 33<42.9592 347.298> 651 36<451.403 604.552> 652 27<256.597 524.104>
LayerCount: 3
Fore
SplineSet
667 0 m 2xe8
 662 0 l 2
 661 0 656 0 654 2 c 0
 649 7 637 19 616 43 c 0
 437 245 196 516 193 516 c 0
 191 516 185 283 185 153 c 0
 185 124 186 101 186 86 c 0
 188 18 224 31 265 26 c 0
 280 24 288 25 288 11 c 0
 288 3 284 -5 273 -5 c 0
 257 -5 199 2 170 2 c 0
 138 2 90 -5 76 -5 c 0
 56 -5 56 4 56 10 c 0
 56 22 57 26 73 26 c 0
 136 26 148 39 152 110 c 0
 158 235 159 361 159 444 c 2
 159 542 l 2
 159 555 158 559 147 572 c 0
 121 604 113 624 51 625 c 0
 40 625 38 626 38 642 c 0
 38 650 42 656 49 656 c 0
 100 654 149 650 216 650 c 0
 223 650 234 637 276 589 c 0
 541 282 646 163 649 163 c 0
 651 163 652 204 652 450 c 0xe8
 652 480 652 506 651 525 c 0
 649 567 650 623 589 623 c 0
 576 623 567 622 555 622 c 0
 548 622 538 623 538 639 c 0
 538 652 542 655 561 655 c 0
 571 655 610 650 670 650 c 0
 695 650 754 655 766 655 c 0
 775 655 779 650 779 641 c 0
 779 626 766 626 754 625 c 0
 706 622 692 608 687 573 c 0xf0
 681 529 679 467 679 417 c 2
 679 364 l 2
 679 206 675 153 675 100 c 0
 675 72 673 41 673 26 c 0
 673 0 668 0 667 0 c 2xe8
EndSplineSet
Validated: 1
EndChar

StartChar: O
Encoding: 79 79 40
Width: 746
VWidth: 0
Flags: W
HStem: -17 33<310.968 470.399> 638 32<297.944 463.138>
VStem: 42 111<206.94 459.773> 613 98<194.92 465.522>
LayerCount: 3
Fore
SplineSet
378 638 m 0
 221 638 153 488 153 336 c 0
 153 178 229 16 390 16 c 0
 480 16 613 67 613 332 c 0
 613 515 530 638 378 638 c 0
375 670 m 0
 553 670 711 567 711 331 c 0
 711 96 549 -17 385 -17 c 0
 215 -17 42 104 42 336 c 0
 42 504 153 670 375 670 c 0
EndSplineSet
Validated: 1
EndChar

StartChar: P
Encoding: 80 80 41
Width: 555
VWidth: 0
Flags: W
HStem: -5 31<20.0222 105.51 216.79 328.917> 274 40<228.092 349.805> 631 29<25.3886 104.49 217.37 343.498>
VStem: 112 99<28.1877 300 316.034 623.503> 434 92<390.641 556.489>
LayerCount: 3
Fore
SplineSet
434 481 m 0
 434 571 355 631 283 631 c 2
 259 631 l 2
 230 631 211 631 211 581 c 2
 211 319 l 1
 211 319 240 314 263 314 c 0
 363 314 434 372 434 481 c 0
78 26 m 0
 96 28 112 29 112 85 c 2
 112 577 l 2
 112 624 106 626 53 626 c 2
 43 626 l 2
 28 626 25 630 25 639 c 0
 25 644 25 657 36 657 c 0
 114 657 135 655 162 655 c 0
 195 656 222 660 313 660 c 0
 365 660 526 631 526 469 c 0
 526 356 442 274 334 274 c 0
 272 274 212 300 212 300 c 1
 212 85 l 2
 212 40 216 26 249 26 c 2
 303 26 l 2
 322 26 329 25 329 15 c 2
 329 8 l 2
 329 -4 328 -5 307 -5 c 0
 294 -5 181 1 160 1 c 0
 129 1 54 -5 45 -5 c 0
 20 -5 20 -4 20 8 c 0
 20 17 20 21 37 23 c 0
 47 24 60 24 78 26 c 0
EndSplineSet
Validated: 1
EndChar

StartChar: T
Encoding: 84 84 45
Width: 730
VWidth: 0
Flags: W
HStem: -5 31<217.003 306.39 429.166 523.985> 613 34<101.535 313.386 421.352 642.61>
VStem: 318 100<31.5945 611.648>
LayerCount: 3
Fore
SplineSet
633 647 m 2
 641 647 668 663 672 663 c 0
 677 663 679 658 682 646 c 2
 692 608 l 2
 699 584 713 540 713 537 c 0
 713 534 706 531 702 531 c 0
 698 531 671 566 643 596 c 0
 629 611 619 613 598 613 c 2
 455 613 l 2
 436 613 420 609 420 586 c 0
 419 503 418 240 418 160 c 2
 418 128 l 2
 418 37 428 28 466 26 c 2
 504 24 l 2
 523 23 524 24 524 9 c 0
 524 -2 519 -5 513 -5 c 0
 476 -5 421 1 369 1 c 0
 318 1 286 -5 229 -5 c 0
 217 -5 217 3 217 11 c 0
 217 23 221 24 229 24 c 0
 259 25 239 24 280 26 c 0
 313 27 312 57 314 90 c 0
 316 116 318 248 318 354 c 2
 318 516 l 2
 318 610 316 613 280 613 c 2
 182 613 l 2
 115 613 118 611 93 589 c 0
 50 551 36 539 33 539 c 0
 31 539 21 541 21 548 c 0
 21 551 54 635 61 659 c 0
 62 664 66 666 69 666 c 0
 76 666 95 647 108 647 c 6
 633 647 l 2
EndSplineSet
Validated: 1
EndChar

StartChar: period
Encoding: 46 46 53
Width: 320
VWidth: 0
Flags: W
HStem: -14 106<112.315 197.685>
VStem: 102 106<-3.68506 81.6851>
LayerCount: 3
Fore
SplineSet
102 39 m 0
 102 69 125 92 155 92 c 0
 185 92 208 69 208 39 c 0
 208 9 185 -14 155 -14 c 0
 125 -14 102 9 102 39 c 0
EndSplineSet
Validated: 1
EndChar

StartChar: comma
Encoding: 44 44 54
Width: 306
VWidth: 0
Flags: W
HStem: -1 99<91.7653 164.309>
VStem: 166 55<-83.2435 38>
LayerCount: 3
Fore
SplineSet
125 -164 m 0
 117 -164 106 -155 106 -145 c 0
 106 -138 115 -134 131 -118 c 0
 156 -92 166 -48 166 -31 c 0
 166 -6 157 -1 147 -1 c 0
 140 -1 134 -3 127 -3 c 0
 99 -3 78 8 78 41 c 0
 78 77 110 98 143 98 c 0
 181 98 221 71 221 5 c 0
 221 -63 183 -118 155 -145 c 0
 143 -157 134 -164 125 -164 c 0
EndSplineSet
Validated: 1
Layer: 2
SplineSet
125 -164 m 4
 117 -164 106 -155 106 -145 c 4
 106 -138 115 -134 131 -118 c 4
 156 -92 166 -48 166 -31 c 4
 166 -8 158 3 158 3 c 5
 158 3 145 -3 127 -3 c 4
 99 -3 78 8 78 41 c 4
 78 77 110 98 143 98 c 4
 181 98 221 71 221 5 c 4
 221 -63 183 -118 155 -145 c 4
 143 -157 134 -164 125 -164 c 4
EndSplineSet
Validated: 1
EndChar

StartChar: hyphen
Encoding: 45 45 55
Width: 316
VWidth: 0
Flags: W
HStem: 172 58<23.0007 289>
VStem: 23 266<172 230>
LayerCount: 3
Fore
SplineSet
26 230 m 2
 286 230 l 2
 289 230 289 222 289 213 c 2
 289 185 l 2
 289 177 289 172 286 172 c 2
 26 172 l 2
 23 172 23 182 23 196 c 2
 23 215 l 2
 23 224 23 230 26 230 c 2
EndSplineSet
Validated: 1
EndChar

StartChar: colon
Encoding: 58 58 56
Width: 320
VWidth: 0
Flags: W
HStem: -9 94<125.394 204.606> 261 94<125.394 204.606>
VStem: 118 94<-1.60614 77.6061 268.394 347.606>
LayerCount: 3
Fore
SplineSet
118 308 m 0
 118 334 139 355 165 355 c 0
 191 355 212 334 212 308 c 0
 212 282 191 261 165 261 c 0
 139 261 118 282 118 308 c 0
118 38 m 0
 118 64 139 85 165 85 c 0
 191 85 212 64 212 38 c 0
 212 12 191 -9 165 -9 c 0
 139 -9 118 12 118 38 c 0
EndSplineSet
Validated: 1
EndChar

StartChar: semicolon
Encoding: 59 59 57
Width: 328
VWidth: 0
Flags: W
HStem: 8 93<121.195 195.838> 261 94<124.394 203.606>
VStem: 117 94<268.394 347.606> 197 52<-74.7171 38.5>
LayerCount: 3
Fore
SplineSet
191 -120 m 0xd0
 161 -153 141 -155 138 -155 c 0
 131 -155 127 -150 125 -143 c 0
 123 -136 127 -132 135 -125 c 0
 170 -94 197 -51 197 -23 c 0
 197 -4 186 8 158 8 c 0
 124 8 108 27 108 48 c 0
 108 73 132 101 173 101 c 0
 211 101 249 70 249 7 c 0
 249 -62 214 -95 191 -120 c 0xd0
117 308 m 0xe0
 117 334 138 355 164 355 c 0
 190 355 211 334 211 308 c 0
 211 282 190 261 164 261 c 0
 138 261 117 282 117 308 c 0xe0
EndSplineSet
Validated: 1
EndChar

StartChar: exclam
Encoding: 33 33 58
Width: 324
VWidth: 0
Flags: W
HStem: -11 88<124.44 199.56>
VStem: 118 88<-4.56006 70.5601 370.443 626> 146 23<208.295 314.302>
LayerCount: 3
Fore
SplineSet
139 626 m 2xa0
 191 626 l 2
 206 626 212 617 212 608 c 0
 212 599 209 607 169 214 c 0
 168 206 147 205 146 215 c 0
 130 530 131 483 119 608 c 0
 118 616 126 626 139 626 c 2xa0
118 33 m 0xc0
 118 57 138 77 162 77 c 0
 186 77 206 57 206 33 c 0
 206 9 186 -11 162 -11 c 0
 138 -11 118 9 118 33 c 0xc0
EndSplineSet
Validated: 1
EndChar

StartChar: question
Encoding: 63 63 59
Width: 352
VWidth: 0
Flags: W
HStem: -12 82<82.0781 153.922> 516 71<108.986 233.683>
VStem: 77 82<-6.92188 64.9219> 104 34<150.475 238.306> 277 25<331.057 460.865>
LayerCount: 3
Fore
SplineSet
104 516 m 2xd8
 92 516 84 532 84 578 c 0
 84 611 89 618 97 618 c 0
 104 618 104 614 120 595 c 0
 126 587 128 587 140 587 c 0
 223 587 247 557 258 541 c 0
 286 501 302 472 302 380 c 0
 302 297 280 257 239 251 c 0
 148 238 140 241 138 221 c 0
 136 193 132 156 128 150 c 0
 124 144 116 144 113 150 c 0
 108 159 104 241 104 292 c 0
 104 303 106 310 122 310 c 2
 210 310 l 2
 276 310 277 346 277 416 c 0
 277 465 236 516 155 516 c 2
 104 516 l 2xd8
77 29 m 0xe8
 77 51 96 70 118 70 c 0
 140 70 159 51 159 29 c 0
 159 7 140 -12 118 -12 c 0
 96 -12 77 7 77 29 c 0xe8
EndSplineSet
Validated: 1
EndChar

StartChar: parenleft
Encoding: 40 40 60
Width: 408
VWidth: 0
Flags: W
HStem: 659 20G<287.5 291>
VStem: 37 82<91.014 347.445>
LayerCount: 3
Fore
SplineSet
305 -210 m 0
 305 -212 291 -226 279 -226 c 0
 275 -226 267 -221 253 -206 c 0
 63 0 37 131 37 215 c 0
 37 426 211 607 274 670 c 0
 280 676 286 679 289 679 c 0
 293 679 310 667 310 659 c 0
 310 652 300 646 277 620 c 0
 179 509 119 365 119 216 c 0
 119 96 169 -60 283 -184 c 0
 297 -199 305 -205 305 -210 c 0
EndSplineSet
Validated: 1
EndChar

StartChar: parenright
Encoding: 41 41 61
Width: 408
VWidth: 0
Flags: W
HStem: 658 20G<58.5 61.5>
VStem: 229 78<89.9467 353.291>
LayerCount: 3
Fore
SplineSet
42 -210 m 0
 42 -205 50 -199 64 -184 c 0
 178 -60 229 72 229 216 c 0
 229 377 168 509 70 620 c 0
 47 646 42 650 42 657 c 0
 42 665 57 678 60 678 c 0
 63 678 69 676 75 670 c 0
 138 607 307 442 307 215 c 0
 307 146 296 23 92 -206 c 0
 78.3517913245 -221.320783268 72 -224 69 -224 c 0
 60 -224 42 -212 42 -210 c 0
EndSplineSet
Validated: 1
EndChar

StartChar: bracketleft
Encoding: 91 91 62
Width: 355
VWidth: 0
Flags: W
HStem: -230 39<137.579 260.729> -222 27<114.06 227.335> 620 38<122.859 273.994>
VStem: 44 70<-194.999 25.1812> 55 68<66.5605 626.003>
LayerCount: 3
Fore
SplineSet
55 299 m 0x68
 55 609 51 609 51 643 c 0
 51 653 69 656 98 656 c 0
 144 656 213 657 264 658 c 0
 272 658 274 649 274 641 c 2
 274 633 l 2
 274 621 263 620 255 620 c 0
 220 622 169 626 143 626 c 0
 128 626 123 630 123 614 c 2x68
 114 -179 l 2
 114 -194 119 -195 135 -195 c 0x70
 190 -195 246 -191 248 -191 c 0
 255 -191 261 -193 261 -218 c 0
 261 -223 256 -230 229 -230 c 0xb0
 194 -230 125 -222 78 -222 c 0
 47 -222 44 -217 44 -206 c 0x70
 44 -191 55 8 55 299 c 0x68
EndSplineSet
Validated: 1
EndChar

StartChar: bracketright
Encoding: 93 93 63
Width: 355
VWidth: 0
Flags: W
HStem: -228 37<44.0354 193> 620 41<47.0586 175.467> 625 29<64.3813 194.996>
VStem: 193 66<-194.998 625.001> 195 70<1.37086 625.001>
LayerCount: 3
Fore
SplineSet
258 -17 m 0xa8
 258 -129 259 -197 259 -206 c 0
 259 -217 258 -224 231 -224 c 0
 219 -224 97 -228 62 -228 c 0
 48 -228 44 -220 44 -208 c 0
 44 -194 47 -191 54 -191 c 0
 78 -192 139 -195 175 -195 c 0
 188 -195 193 -193 193 -179 c 2xb0
 195 614 l 2
 195 627 189 625 179 625 c 0xa8
 103 625 67 620 62 620 c 0
 52 620 47 633 47 642 c 0
 47 652 52 661 62 661 c 0xc8
 113 660 151 654 240 654 c 0
 265 654 265 650 265 641 c 0
 265 575 258 378 258 -17 c 0xa8
EndSplineSet
Validated: 1
EndChar

StartChar: quoteleft
Encoding: 8216 8216 64
Width: 278
VWidth: 0
Flags: W
HStem: 409 90<119.091 193.881> 659 20G<162.5 179>
VStem: 68 48<468.354 587.594>
LayerCount: 3
Fore
SplineSet
193 664 m 0
 193 657 186 651 169 635 c 0
 143 610 116 574 116 539 c 0
 116 512 125 502 146 499 c 0
 157 498 201 503 201 455 c 0
 201 433 185 409 146 409 c 0
 115 409 68 436 68 502 c 0
 68 594 149 679 176 679 c 0
 182 679 193 675 193 664 c 0
EndSplineSet
Validated: 1
EndChar

StartChar: quoteright
Encoding: 8217 8217 65
Width: 244
VWidth: 0
Flags: W
HStem: 579 98<80.8125 143.291>
VStem: 145 53<512.253 617>
LayerCount: 3
Fore
SplineSet
123 579 m 0
 103 579 69 581 69 622 c 0
 69 646 87 677 128 677 c 0
 165 677 198 641 198 593 c 0
 198 541 163 480 134 444 c 0
 119 426 109 414 100 414 c 0
 91 414 84 420 83 430 c 0
 82 437 88 442 98 454 c 0
 129 491 145 527 145 551 c 0
 145 567 143 579 123 579 c 0
EndSplineSet
Validated: 1
EndChar
